<?xml version="1.0" encoding="utf-8" ?>
<svg baseProfile="full" height="27.94cm" version="1.1" width="21.59cm" xmlns="http://www.w3.org/2000/svg" xmlns:ev="http://www.w3.org/2001/xml-events" xmlns:xlink="http://www.w3.org/1999/xlink"><defs /><line stroke="green" x1="5.317850884863366cm" x2="4.733471249659953cm" y1="7.000000000000002cm" y2="13.733842025462444cm" /><line stroke="green" x1="5.317850884863366cm" x2="1.0cm" y1="7.000000000000002cm" y2="11.812882558669237cm" /><line stroke="green" x1="4.733471249659953cm" x2="1.0cm" y1="13.733842025462444cm" y2="11.812882558669237cm" /><line stroke="green" x1="7.6425619011815cm" x2="5.317850884863366cm" y1="7.3651788864491845cm" y2="7.0cm" /><line stroke="green" x1="7.6425619011815cm" x2="4.733471249659953cm" y1="7.3651788864491845cm" y2="13.733842025462444cm" /><line stroke="green" x1="5.317850884863366cm" x2="4.733471249659953cm" y1="7.0cm" y2="13.733842025462444cm" /><line stroke="green" x1="9.678581345594768cm" x2="7.6425619011815cm" y1="7.7576632897857305cm" y2="7.3651788864491845cm" /><line stroke="green" x1="9.678581345594768cm" x2="4.733471249659955cm" y1="7.7576632897857305cm" y2="13.733842025462444cm" /><line stroke="green" x1="7.6425619011815cm" x2="4.733471249659955cm" y1="7.3651788864491845cm" y2="13.733842025462444cm" /><line stroke="green" x1="11.660543234599679cm" x2="9.678581345594768cm" y1="8.267258137480344cm" y2="7.7576632897857305cm" /><line stroke="green" x1="11.660543234599679cm" x2="4.733471249659955cm" y1="8.267258137480344cm" y2="13.733842025462444cm" /><line stroke="green" x1="9.678581345594768cm" x2="4.733471249659955cm" y1="7.7576632897857305cm" y2="13.733842025462444cm" /><line stroke="green" x1="13.175571262760073cm" x2="11.660543234599679cm" y1="9.304486475339186cm" y2="8.267258137480344cm" /><line stroke="green" x1="13.175571262760073cm" x2="4.733471249659951cm" y1="9.304486475339186cm" y2="13.733842025462447cm" /><line stroke="green" x1="11.660543234599679cm" x2="4.733471249659951cm" y1="8.267258137480344cm" y2="13.733842025462447cm" /><line stroke="green" x1="14.21901929469799cm" x2="13.175571262760073cm" y1="10.938736323102878cm" y2="9.304486475339186cm" /><line stroke="green" x1="14.21901929469799cm" x2="4.733471249659951cm" y1="10.938736323102878cm" y2="13.733842025462444cm" /><line stroke="green" x1="13.175571262760073cm" x2="4.733471249659951cm" y1="9.304486475339186cm" y2="13.733842025462444cm" /><line stroke="green" x1="13.9722640495708cm" x2="14.21901929469799cm" y1="12.776309819776213cm" y2="10.938736323102878cm" /><line stroke="green" x1="13.9722640495708cm" x2="4.73347124965995cm" y1="12.776309819776213cm" y2="13.733842025462444cm" /><line stroke="green" x1="14.21901929469799cm" x2="4.73347124965995cm" y1="10.938736323102878cm" y2="13.733842025462444cm" /><line stroke="green" x1="13.925662119447058cm" x2="13.9722640495708cm" y1="14.568141381995929cm" y2="12.776309819776213cm" /><line stroke="green" x1="13.925662119447058cm" x2="4.73347124965995cm" y1="14.568141381995929cm" y2="13.733842025462444cm" /><line stroke="green" x1="13.9722640495708cm" x2="4.73347124965995cm" y1="12.776309819776213cm" y2="13.733842025462444cm" /><line stroke="green" x1="14.18009061156988cm" x2="13.925662119447058cm" y1="16.34152953933186cm" y2="14.568141381995929cm" /><line stroke="green" x1="14.18009061156988cm" x2="4.733471249659954cm" y1="16.34152953933186cm" y2="13.733842025462444cm" /><line stroke="green" x1="13.925662119447058cm" x2="4.733471249659954cm" y1="14.568141381995929cm" y2="13.733842025462444cm" /><line stroke="green" x1="14.18009061156988cm" x2="1.738683054016839cm" y1="16.34152953933186cm" y2="18.13775929814522cm" /><line stroke="green" x1="14.18009061156988cm" x2="4.733471249659951cm" y1="16.34152953933186cm" y2="13.733842025462442cm" /><line stroke="green" x1="1.738683054016839cm" x2="4.733471249659951cm" y1="18.13775929814522cm" y2="13.733842025462442cm" /><line stroke="green" x1="16.21901929469799cm" x2="19.974406616316607cm" y1="14.0cm" y2="14.0cm" /><line stroke="green" x1="16.21901929469799cm" x2="16.155731381116397cm" y1="14.0cm" y2="17.800287649805174cm" /><line stroke="green" x1="19.974406616316607cm" x2="16.155731381116397cm" y1="14.0cm" y2="17.800287649805174cm" /><line stroke="green" x1="19.974406616316607cm" x2="14.346848415582885cm" y1="14.0cm" y2="22.367085333566237cm" /><line stroke="green" x1="19.974406616316607cm" x2="16.155731381116393cm" y1="14.0cm" y2="17.800287649805174cm" /><line stroke="green" x1="14.346848415582885cm" x2="16.155731381116393cm" y1="22.367085333566237cm" y2="17.800287649805174cm" /><line stroke="green" x1="19.974406616316607cm" x2="19.80325867696849cm" y1="14.0cm" y2="21.294422891974612cm" /><line stroke="green" x1="19.974406616316607cm" x2="14.346848415582885cm" y1="14.0cm" y2="22.367085333566234cm" /><line stroke="green" x1="19.80325867696849cm" x2="14.346848415582885cm" y1="21.294422891974612cm" y2="22.367085333566234cm" /><line stroke="green" x1="16.21901929469799cm" x2="19.974406616316607cm" y1="14.0cm" y2="14.0cm" /><line stroke="green" x1="16.21901929469799cm" x2="16.155731381116397cm" y1="14.0cm" y2="10.199712350194826cm" /><line stroke="green" x1="19.974406616316607cm" x2="16.155731381116397cm" y1="14.0cm" y2="10.199712350194826cm" /><line stroke="green" x1="19.974406616316607cm" x2="14.346848415582885cm" y1="14.0cm" y2="5.632914666433765cm" /><line stroke="green" x1="19.974406616316607cm" x2="16.155731381116393cm" y1="14.0cm" y2="10.199712350194828cm" /><line stroke="green" x1="14.346848415582885cm" x2="16.155731381116393cm" y1="5.632914666433765cm" y2="10.199712350194828cm" /><line stroke="green" x1="19.974406616316607cm" x2="19.80325867696849cm" y1="14.0cm" y2="6.705577108025388cm" /><line stroke="green" x1="19.974406616316607cm" x2="14.346848415582885cm" y1="14.0cm" y2="5.632914666433766cm" /><line stroke="green" x1="19.80325867696849cm" x2="14.346848415582885cm" y1="6.705577108025388cm" y2="5.632914666433766cm" /></svg>